pedal_clip_forces_x_-0.1_y_-0.05.mot
version=1
nRows=125
nColumns=4
inDegrees=yes
endheader
time	PedalClip_calcn_r_Fx	PedalClip_calcn_r_Fy	PedalClip_calcn_r_Fz
0.8545241	-12.1276210851187	32.4585864705456	0
0.8546671	-12.2460807504351	32.5578951391625	0
0.85492646	-12.3644757395427	32.6578148791687	0
0.85527839	-12.4828324293518	32.7583398479442	0
0.85533084	-12.601174473152	32.8594762479153	0
0.85546038	-12.7194820531085	32.9612395531108	0
0.85582058	-12.8376982364465	33.0636372689996	0
0.85596077	-12.9557678431588	33.1666654411809	0
0.85621829	-13.0736608593223	33.2703066667812	0
0.85656757	-13.1913814168492	33.3745556484926	0
0.85661994	-13.3089268845751	33.4794126209086	0
0.85674876	-13.4262334752499	33.5848785327647	0
0.85710713	-13.5432207825749	33.6909386782085	0
0.85724481	-13.6598406655069	33.7975632933805	0
0.8575004	-13.7760888263854	33.904714494948	0
0.85784754	-13.8919931369135	34.0123763874568	0
0.8578996	-14.00756891146	34.1205486690283	0
0.85802786	-14.1227661745035	34.2292431882873	0
0.85838347	-14.2375792518252	34.3384600454453	0
0.85851892	-14.3520789663291	34.4481862553094	0
0.85877241	-14.4663789648547	34.5583975993095	0
0.85911793	-14.5805815115793	34.6690873890336	0
0.85916941	-14.6947706785169	34.7802587334701	0
0.85929732	-14.8090291878016	34.8919153217449	0
0.85964893	-14.9235256366798	35.0040370897375	0
0.85978229	-15.0384720458513	35.116585524445	0
0.86003338	-15.1540384268223	35.2295177575843	0
0.86037782	-15.270290223461	35.3428217756738	0
0.86042838	-15.3872528697841	35.4565068906531	0
0.86055616	-15.5049800276118	35.5705928763363	0
0.86090211	-15.6236076290474	35.6850786884515	0
0.86103349	-15.7432672719767	35.7999466207698	0
0.86128163	-15.8640069151958	35.9151706356557	0
0.86162549	-15.9857616001797	36.0307524280806	0
0.86167476	-16.1084542987494	36.1467092451381	0
0.86180264	-16.2320537678149	36.2630540604648	0
0.86214082	-16.3565692138413	36.3797700313647	0
0.86227035	-16.4819919322348	36.4968195145118	0
0.86251469	-16.6082725720589	36.6141624663332	0
0.86285833	-16.735321596752	36.7317988925256	0
0.86290592	-16.8630829379289	36.8497538812123	0
0.86303413	-16.9915590179691	36.9680557085124	0
0.86336199	-17.1207802795658	37.0867215439385	0
0.86349014	-17.2507485161324	37.2057564108047	0
0.86372965	-17.3814077475946	37.3251522636642	0
0.8640732	-17.512723388535	37.4449278716598	0
0.86411877	-17.6447323977164	37.5651182486132	0
0.86424751	-17.77752719449	37.6857548235176	0
0.86456237	-17.9112131966962	37.8068486775926	0
0.86468407	-18.0458594689936	37.9283950237302	0
0.86491577	-18.181468885504	38.0503731820007	0
0.86526442	-18.3179657321448	38.1727560989403	0
0.86530339	-18.4552758302909	38.2955191622348	0
0.86543602	-18.5933449776472	38.418638928657	0
0.86571111	-18.7321305206454	38.5420926749234	0
0.86580211	-18.8715935243802	38.6658587948612	0
0.86602307	-19.011671756146	38.789907377738	0
0.86635146	-19.1522919148205	38.9142129803448	0
0.86640202	-19.293393233655	39.0387573272465	0
0.86652536	-19.4349524766151	39.1635365313351	0
0.86685974	-19.5770019363456	39.2885681751764	0
0.86698476	-19.7196207505182	39.4138918811368	0
0.86722554	-19.8629105132592	39.5395736853448	0
0.86758136	-20.0069602532438	39.6657033386579	0
0.86761694	-20.1518294213674	39.7923440516733	0
0.86775103	-20.297555890263	39.9195458104389	0
0.86801057	-20.4441712709932	40.0473818842634	0
0.86809663	-20.5917027136994	40.1759612898181	0
0.86831531	-20.7401692728133	40.305352601989	0
0.86863208	-20.889615836466	40.4355894924265	0
0.86868578	-21.0401312604132	40.5667136503742	0
0.8688055	-21.1918365799144	40.6988031390246	0
0.869152	-21.3448723807878	40.8319953015802	0
0.86927814	-21.499413390808	40.9664688643287	0
0.8695203	-21.6555701309122	41.1023710359933	0
0.86989811	-21.8134388032394	41.2398016934241	0
0.86993589	-21.973066196824	41.3788624893778	0
0.87006435	-22.1344366730132	41.5196748090184	0
0.87031775	-22.2975054219634	41.662397829079	0
0.87039782	-22.4622882851154	41.8071965871155	0
0.87061701	-22.6288540240404	41.9542056734751	0
0.87092508	-22.7972785375857	42.1035022639796	0
0.87097995	-22.9675343846219	42.2551211216307	0
0.87109725	-23.1394975769686	42.4090824897324	0
0.87144582	-23.3130469789243	42.5654312990599	0
0.87157233	-23.4882583681477	42.7242642484914	0
0.87181028	-23.6653161282899	42.8856838374503	0
0.87223503	-23.8443117196266	43.0497512658408	0
0.87227751	-24.0250469110106	43.2164581029178	0
0.87239076	-24.207143604649	43.3857054011572	0
0.87260808	-24.3901939377111	43.5573321383944	0
0.87270183	-24.573910165731	43.7311580785989	0
0.87291536	-24.758275001184	43.9070910049937	0
0.87319917	-24.9433524456537	44.0851033827134	0
0.87325558	-25.1291024685707	44.2651499591149	0
0.87336701	-25.3153575147447	44.4470739360359	0
0.87369987	-25.5019287770422	44.6306371309331	0
0.87382558	-25.6887198543628	44.8156001111258	0
0.8740615	-25.8758048803976	45.001849174131	0
0.87447832	-26.0632680735748	45.1893697429448	0
0.87456993	-26.2511399716112	45.378147908376	0
0.8748133	-26.4393611866679	45.5680782455478	0
0.87508754	-26.6278833619067	45.759043795371	0
0.8752999	-26.8166756494162	45.9509290858308	0
0.87567745	-27.0057363914785	46.1436116014892	0
0.87589337	-27.1949598767832	46.3369493432751	0
0.87627659	-27.3841923167746	46.5308119879405	0
0.87652497	-27.5732836753532	46.7250953789591	0
0.87684287	-27.7621197132002	46.9197186449106	0
0.87704834	-27.9506731492277	47.1146257397113	0
0.87742138	-28.1390078982353	47.3097979161873	0
0.87761477	-28.3270379154921	47.5052670491095	0
0.87786243	-28.5145852868253	47.7010443421358	0
0.87796628	-28.7014403990824	47.8970575054227	0
0.87817357	-28.8873850501978	48.0931086234494	0
0.87854055	-29.0722488920313	48.2889589031735	0
0.87857725	-29.2558947279287	48.4844071172695	0
0.87862705	-29.4379777129588	48.6793346497231	0
0.87887606	-29.6181369431899	48.8736282293216	0
0.8790819	-29.7961570977295	49.0671103699976	0
0.87945301	-29.9720373066271	49.2595123919735	0
0.87963154	-30.1460054210881	49.450586948479	0
0.87988801	-30.3184311502817	49.6401933543325	0
0.88001624	-30.489677882955	49.8283397293264	0
0.8803761	-30.6601093747241	50.0151017845021	0
